<?xml version="1.0" encoding="UTF-8" standalone="no"?>
<!DOCTYPE svg PUBLIC "-//W3C//DTD SVG 1.1//EN" "http://www.w3.org/Graphics/SVG/1.1/DTD/svg11.dtd">
<svg xmlns="http://www.w3.org/2000/svg" version="1.1" viewBox="0.00 0.00 1578.00 269.00">
<g stroke-width="2.00" fill="none" stroke-linecap="butt">
<path stroke="#808080" vector-effect="non-scaling-stroke" d="
  M 117.93 157.73
  C 93.47 167.80 52.04 166.68 44.47 134.18
  Q 44.37 133.74 43.93 133.74
  L 7.25 133.69
  Q 6.71 133.69 6.76 134.23
  C 11.57 188.21 68.74 200.55 112.36 193.84
  C 141.74 189.32 168.90 171.52 166.59 138.18
  C 164.65 110.30 138.13 98.59 114.74 92.76
  Q 104.74 90.26 76.85 84.29
  C 68.07 82.41 46.50 77.10 51.29 63.39
  C 56.78 47.70 84.19 48.41 96.80 51.17
  C 109.61 53.98 118.38 61.85 122.17 74.22
  Q 122.83 76.38 123.55 78.50
  Q 123.72 79.00 124.25 79.00
  L 161.40 79.00
  A 0.27 0.26 87.0 0 0 161.66 78.70
  C 157.37 45.52 133.68 24.09 101.26 18.69
  C 65.34 12.71 11.02 24.82 13.59 72.17
  C 15.33 104.30 48.13 113.48 73.66 118.19
  Q 87.84 120.81 101.96 123.67
  C 112.07 125.72 129.50 129.91 129.69 142.28
  C 129.80 149.51 124.41 155.06 117.93 157.73"
/>
<path stroke="#8ae1df" vector-effect="non-scaling-stroke" d="
  M 215.2411 19.7997
  A 0.27 0.27 0.0 0 0 214.9706 19.5302
  L 180.7507 19.5899
  A 0.27 0.27 0.0 0 0 180.4811 19.8604
  L 180.5189 41.5203
  A 0.27 0.27 0.0 0 0 180.7894 41.7898
  L 215.0093 41.7301
  A 0.27 0.27 0.0 0 0 215.2789 41.4596
  L 215.2411 19.7997"
/>
<path stroke="#8ae1df" vector-effect="non-scaling-stroke" d="
  M 816.56 100.53
  A 0.32 0.32 0.0 0 1 816.24 100.21
  L 816.25 31.07
  A 0.32 0.32 0.0 0 1 816.57 30.75
  L 927.15 30.75
  A 0.32 0.32 0.0 0 0 927.47 30.43
  L 927.56 19.94
  A 0.32 0.32 0.0 0 0 927.24 19.62
  L 804.07 19.65
  A 0.32 0.32 0.0 0 0 803.75 19.97
  L 803.75 192.68
  A 0.32 0.32 0.0 0 0 804.07 193.00
  L 927.25 193.00
  A 0.32 0.32 0.0 0 0 927.57 192.68
  L 927.46 182.07
  A 0.32 0.32 0.0 0 0 927.14 181.75
  L 816.51 181.91
  A 0.32 0.32 0.0 0 1 816.19 181.59
  L 816.17 112.07
  A 0.32 0.32 0.0 0 1 816.49 111.75
  L 927.17 111.75
  A 0.32 0.32 0.0 0 0 927.49 111.44
  L 927.68 101.15
  A 0.32 0.32 0.0 0 0 927.36 100.82
  L 816.56 100.53"
/>
<path stroke="#8ae1df" vector-effect="non-scaling-stroke" d="
  M 1365.23 68.28
  Q 1365.29 113.85 1365.26 159.43
  C 1365.25 177.57 1372.29 192.24 1393.01 192.83
  Q 1409.40 193.29 1447.07 192.89
  Q 1447.57 192.89 1447.56 192.38
  L 1447.35 182.54
  Q 1447.33 182.00 1446.79 182.00
  Q 1432.48 181.99 1396.26 181.78
  C 1381.75 181.70 1377.59 171.37 1377.57 158.75
  Q 1377.50 113.47 1377.49 68.54
  A 0.70 0.70 0.0 0 1 1378.18 67.84
  L 1446.73 67.75
  Q 1447.22 67.75 1447.22 67.27
  L 1447.31 57.28
  A 0.52 0.52 0.0 0 0 1446.79 56.75
  L 1378.25 56.75
  Q 1377.50 56.75 1377.50 56.00
  L 1377.50 20.25
  Q 1377.50 19.75 1377.00 19.75
  L 1365.84 19.75
  Q 1365.24 19.75 1365.24 20.35
  L 1365.24 56.13
  Q 1365.24 56.75 1364.62 56.75
  L 1342.88 56.75
  Q 1342.25 56.75 1342.25 57.38
  L 1342.25 67.15
  Q 1342.25 67.75 1342.84 67.75
  L 1364.73 67.77
  Q 1365.23 67.77 1365.23 68.28"
/>
<path stroke="#808080" vector-effect="non-scaling-stroke" d="
  M 345.51 177.43
  C 345.67 185.87 346.01 196.05 343.00 203.60
  Q 336.66 219.51 318.50 223.36
  C 299.49 227.38 281.51 224.20 271.73 205.61
  Q 271.42 205.03 270.76 205.02
  L 234.56 204.78
  A 0.54 0.54 0.0 0 0 234.02 205.43
  C 239.64 234.41 260.74 252.88 289.25 257.22
  C 320.44 261.97 359.34 251.69 374.85 221.14
  Q 379.79 211.42 379.89 200.50
  Q 380.56 128.85 379.89 57.18
  Q 379.89 56.75 379.46 56.75
  L 346.00 56.75
  Q 345.50 56.75 345.50 57.25
  L 345.50 71.75
  Q 345.50 72.65 344.95 71.93
  Q 335.87 60.23 321.99 56.98
  C 301.71 52.22 274.23 53.26 255.79 64.29
  C 227.76 81.06 223.74 118.99 230.00 147.75
  Q 237.68 182.98 272.67 192.36
  Q 291.11 197.31 311.57 194.69
  C 326.02 192.85 336.71 188.60 345.23 177.34
  A 0.16 0.16 0.0 0 1 345.51 177.43"
/>
<path stroke="#808080" vector-effect="non-scaling-stroke" d="
  M 428.16 67.94
  L 428.11 57.18
  Q 428.11 56.75 427.68 56.75
  L 394.00 56.75
  Q 393.50 56.75 393.50 57.25
  L 393.50 192.37
  Q 393.50 193.00 394.13 193.00
  L 427.71 193.00
  Q 428.16 193.00 428.13 192.56
  C 427.78 185.47 428.25 176.41 428.25 171.35
  Q 428.25 146.05 428.25 120.76
  C 428.25 100.98 435.96 89.92 456.07 87.98
  C 475.82 86.07 492.31 94.67 492.94 116.53
  Q 493.58 138.98 493.14 192.41
  Q 493.14 193.00 493.73 193.00
  L 527.23 193.00
  A 0.54 0.53 90.0 0 0 527.76 192.46
  Q 527.71 157.59 527.78 122.62
  C 527.79 114.89 528.27 107.83 531.30 101.81
  C 537.90 88.66 555.33 86.40 568.50 88.50
  C 592.36 92.29 593.15 111.35 592.77 130.86
  C 592.35 152.48 592.23 173.52 592.56 192.34
  Q 592.57 193.00 593.23 193.00
  L 626.72 193.00
  Q 627.26 193.00 627.26 192.46
  Q 627.26 157.99 627.22 123.52
  Q 627.20 110.66 626.32 104.64
  C 620.27 63.31 586.75 48.85 548.69 56.19
  Q 527.92 60.20 517.54 78.11
  Q 517.26 78.59 516.95 78.13
  C 502.09 56.07 475.50 51.10 450.74 56.01
  Q 436.88 58.75 428.53 68.09
  Q 428.16 68.51 428.16 67.94"
/>
<path stroke="#808080" vector-effect="non-scaling-stroke" d="
  M 754.66 71.85
  C 743.45 58.43 729.93 55.29 712.53 54.46
  C 680.31 52.92 649.16 64.43 640.41 98.66
  Q 634.44 122.00 639.16 145.46
  C 643.82 168.62 656.78 184.97 679.97 191.55
  C 696.01 196.10 713.55 196.75 730.15 193.09
  Q 745.23 189.76 754.26 177.74
  A 0.41 0.41 0.0 0 1 755.00 177.98
  L 755.00 192.37
  Q 755.00 193.00 755.63 193.00
  L 789.25 193.00
  A 0.50 0.50 0.0 0 0 789.75 192.50
  L 789.75 57.25
  Q 789.75 56.75 789.25 56.75
  L 755.50 56.75
  Q 755.00 56.75 755.00 57.25
  L 755.00 71.73
  Q 755.00 72.25 754.66 71.85"
/>
<path stroke="#8ae1df" vector-effect="non-scaling-stroke" d="
  M 1156.33 56.48
  C 1120.62 49.34 1079.99 59.64 1069.74 99.75
  Q 1063.12 125.68 1070.10 150.72
  C 1080.33 187.47 1115.18 199.12 1149.72 194.59
  C 1180.38 190.56 1200.86 171.68 1205.18 140.03
  Q 1205.26 139.50 1204.73 139.50
  L 1193.51 139.50
  A 0.62 0.61 3.7 0 0 1192.90 140.03
  C 1190.24 159.90 1179.45 175.22 1159.29 180.25
  Q 1138.11 185.53 1116.75 181.00
  C 1087.46 174.80 1079.66 151.97 1078.88 125.42
  A 0.34 0.33 89.2 0 1 1079.21 125.07
  L 1205.49 124.76
  Q 1206.09 124.76 1206.09 124.16
  C 1206.16 90.69 1190.78 63.36 1156.33 56.48"
/>
<path stroke="#8ae1df" vector-effect="non-scaling-stroke" d="
  M 1227.24 78.84
  L 1227.27 57.39
  Q 1227.27 56.75 1226.64 56.75
  L 1215.50 56.75
  A 0.50 0.50 0.0 0 0 1215.00 57.25
  L 1215.00 192.37
  Q 1215.00 193.00 1215.62 193.00
  L 1226.72 193.00
  Q 1227.32 193.00 1227.32 192.40
  C 1227.33 165.94 1227.35 139.54 1227.68 113.08
  C 1227.86 99.05 1231.68 82.08 1243.89 73.56
  C 1256.99 64.44 1278.44 64.05 1293.76 67.31
  C 1318.81 72.65 1324.40 95.49 1324.45 117.51
  Q 1324.53 154.96 1324.49 192.45
  Q 1324.49 193.00 1325.04 193.00
  L 1336.20 193.00
  Q 1336.73 193.00 1336.73 192.47
  Q 1336.85 153.62 1336.72 114.78
  C 1336.63 87.62 1327.85 61.72 1297.75 56.23
  C 1271.85 51.50 1242.20 53.56 1227.74 78.98
  A 0.27 0.27 0.0 0 1 1227.24 78.84"
/>
<path stroke="#8ae1df" vector-effect="non-scaling-stroke" d="
  M 1462.11 78.96
  Q 1458.14 87.95 1460.72 98.03
  C 1471.19 138.85 1556.12 124.50 1558.67 156.07
  C 1561.03 185.26 1514.26 184.74 1496.50 181.29
  Q 1474.96 177.10 1467.77 156.66
  Q 1467.62 156.25 1467.18 156.25
  L 1454.27 156.25
  Q 1453.80 156.25 1453.94 156.70
  Q 1463.45 186.03 1492.93 192.82
  C 1516.03 198.13 1559.23 196.51 1569.23 168.81
  C 1572.12 160.83 1571.78 151.14 1567.51 143.74
  C 1560.04 130.80 1541.73 124.98 1528.16 121.39
  Q 1515.32 118.00 1502.50 114.50
  C 1489.94 111.08 1470.81 104.74 1472.27 89.04
  C 1474.01 70.29 1497.89 66.53 1512.35 67.04
  C 1530.21 67.67 1544.32 72.98 1551.62 90.54
  Q 1552.25 92.05 1553.01 93.47
  A 1.00 0.98 -13.1 0 0 1553.87 93.99
  L 1566.00 94.17
  Q 1566.56 94.18 1566.41 93.65
  Q 1559.95 70.67 1540.01 60.91
  C 1517.34 49.81 1474.08 51.90 1462.11 78.96"
/>
<path stroke="#808080" vector-effect="non-scaling-stroke" d="
  M 180.88 56.69
  A 0.11 0.11 0.0 0 1 180.83 56.68
  L 180.64 56.58
  A 0.11 0.11 0.0 0 0 180.48 56.67
  L 180.57 192.89
  A 0.11 0.11 0.0 0 0 180.68 193.00
  L 215.14 193.00
  A 0.11 0.11 0.0 0 0 215.25 192.89
  L 215.25 56.79
  A 0.11 0.11 0.0 0 0 215.14 56.68
  L 180.88 56.69"
/>
<path stroke="#808080" vector-effect="non-scaling-stroke" d="
  M 1006.00 192.99
  L 1018.67 192.99
  Q 1019.10 192.99 1019.27 192.58
  L 1074.87 57.26
  Q 1075.08 56.75 1074.53 56.75
  L 1062.53 56.75
  Q 1061.96 56.75 1061.74 57.28
  Q 1034.15 124.44 1006.55 191.55
  Q 1006.46 191.76 1006.02 192.05"
/>
<path stroke="#8ae1df" vector-effect="non-scaling-stroke" d="
  M 1006.02 192.05
  Q 1005.89 192.02 1005.73 191.99
  A 0.43 0.42 83.1 0 1 1005.42 191.74
  L 950.12 57.16
  A 0.85 0.65 -8.4 0 0 949.38 56.75
  L 937.31 56.75
  Q 936.84 56.75 937.02 57.18
  L 992.64 192.57
  A 0.69 0.68 78.2 0 0 993.27 192.99
  L 1006.00 192.99"
/>
<path stroke="#0b615f" vector-effect="non-scaling-stroke" d="
  M 1006.02 192.05
  Q 1005.71 192.69 1006.00 192.99"
/>
<path stroke="#808080" vector-effect="non-scaling-stroke" d="
  M 269.92 100.92
  C 262.36 110.14 260.84 124.34 263.58 135.56
  C 269.55 160.01 295.37 164.83 317.02 160.56
  C 333.29 157.35 343.37 146.42 345.01 130.30
  C 347.33 107.42 335.85 91.52 312.76 88.50
  C 297.84 86.56 279.99 88.64 269.92 100.92"
/>
<path stroke="#808080" vector-effect="non-scaling-stroke" d="
  M 739.10 94.14
  C 721.65 83.43 685.62 85.17 675.84 106.60
  C 668.36 122.99 671.05 145.10 686.73 155.24
  C 698.33 162.74 717.02 163.68 730.26 159.76
  Q 754.53 152.57 754.75 126.00
  Q 754.94 103.86 739.10 94.14"
/>
<path stroke="#8ae1df" vector-effect="non-scaling-stroke" d="
  M 1079.80 113.75
  L 1192.88 113.75
  A 0.13 0.13 0.0 0 0 1193.01 113.62
  L 1193.01 113.12
  A 49.28 46.27 0.0 0 0 1143.73 66.85
  L 1128.95 66.85
  A 49.28 46.27 -0.0 0 0 1079.67 113.12
  L 1079.67 113.62
  A 0.13 0.13 0.0 0 0 1079.80 113.75"
/>
</g>
<path fill="#ffffff" d="
  M 0.00 0.00
  L 1578.00 0.00
  L 1578.00 269.00
  L 0.00 269.00
  L 0.00 0.00
  Z
  M 117.93 157.73
  C 93.47 167.80 52.04 166.68 44.47 134.18
  Q 44.37 133.74 43.93 133.74
  L 7.25 133.69
  Q 6.71 133.69 6.76 134.23
  C 11.57 188.21 68.74 200.55 112.36 193.84
  C 141.74 189.32 168.90 171.52 166.59 138.18
  C 164.65 110.30 138.13 98.59 114.74 92.76
  Q 104.74 90.26 76.85 84.29
  C 68.07 82.41 46.50 77.10 51.29 63.39
  C 56.78 47.70 84.19 48.41 96.80 51.17
  C 109.61 53.98 118.38 61.85 122.17 74.22
  Q 122.83 76.38 123.55 78.50
  Q 123.72 79.00 124.25 79.00
  L 161.40 79.00
  A 0.27 0.26 87.0 0 0 161.66 78.70
  C 157.37 45.52 133.68 24.09 101.26 18.69
  C 65.34 12.71 11.02 24.82 13.59 72.17
  C 15.33 104.30 48.13 113.48 73.66 118.19
  Q 87.84 120.81 101.96 123.67
  C 112.07 125.72 129.50 129.91 129.69 142.28
  C 129.80 149.51 124.41 155.06 117.93 157.73
  Z
  M 215.2411 19.7997
  A 0.27 0.27 0.0 0 0 214.9706 19.5302
  L 180.7507 19.5899
  A 0.27 0.27 0.0 0 0 180.4811 19.8604
  L 180.5189 41.5203
  A 0.27 0.27 0.0 0 0 180.7894 41.7898
  L 215.0093 41.7301
  A 0.27 0.27 0.0 0 0 215.2789 41.4596
  L 215.2411 19.7997
  Z
  M 816.56 100.53
  A 0.32 0.32 0.0 0 1 816.24 100.21
  L 816.25 31.07
  A 0.32 0.32 0.0 0 1 816.57 30.75
  L 927.15 30.75
  A 0.32 0.32 0.0 0 0 927.47 30.43
  L 927.56 19.94
  A 0.32 0.32 0.0 0 0 927.24 19.62
  L 804.07 19.65
  A 0.32 0.32 0.0 0 0 803.75 19.97
  L 803.75 192.68
  A 0.32 0.32 0.0 0 0 804.07 193.00
  L 927.25 193.00
  A 0.32 0.32 0.0 0 0 927.57 192.68
  L 927.46 182.07
  A 0.32 0.32 0.0 0 0 927.14 181.75
  L 816.51 181.91
  A 0.32 0.32 0.0 0 1 816.19 181.59
  L 816.17 112.07
  A 0.32 0.32 0.0 0 1 816.49 111.75
  L 927.17 111.75
  A 0.32 0.32 0.0 0 0 927.49 111.44
  L 927.68 101.15
  A 0.32 0.32 0.0 0 0 927.36 100.82
  L 816.56 100.53
  Z
  M 1365.23 68.28
  Q 1365.29 113.85 1365.26 159.43
  C 1365.25 177.57 1372.29 192.24 1393.01 192.83
  Q 1409.40 193.29 1447.07 192.89
  Q 1447.57 192.89 1447.56 192.38
  L 1447.35 182.54
  Q 1447.33 182.00 1446.79 182.00
  Q 1432.48 181.99 1396.26 181.78
  C 1381.75 181.70 1377.59 171.37 1377.57 158.75
  Q 1377.50 113.47 1377.49 68.54
  A 0.70 0.70 0.0 0 1 1378.18 67.84
  L 1446.73 67.75
  Q 1447.22 67.75 1447.22 67.27
  L 1447.31 57.28
  A 0.52 0.52 0.0 0 0 1446.79 56.75
  L 1378.25 56.75
  Q 1377.50 56.75 1377.50 56.00
  L 1377.50 20.25
  Q 1377.50 19.75 1377.00 19.75
  L 1365.84 19.75
  Q 1365.24 19.75 1365.24 20.35
  L 1365.24 56.13
  Q 1365.24 56.75 1364.62 56.75
  L 1342.88 56.75
  Q 1342.25 56.75 1342.25 57.38
  L 1342.25 67.15
  Q 1342.25 67.75 1342.84 67.75
  L 1364.73 67.77
  Q 1365.23 67.77 1365.23 68.28
  Z
  M 345.51 177.43
  C 345.67 185.87 346.01 196.05 343.00 203.60
  Q 336.66 219.51 318.50 223.36
  C 299.49 227.38 281.51 224.20 271.73 205.61
  Q 271.42 205.03 270.76 205.02
  L 234.56 204.78
  A 0.54 0.54 0.0 0 0 234.02 205.43
  C 239.64 234.41 260.74 252.88 289.25 257.22
  C 320.44 261.97 359.34 251.69 374.85 221.14
  Q 379.79 211.42 379.89 200.50
  Q 380.56 128.85 379.89 57.18
  Q 379.89 56.75 379.46 56.75
  L 346.00 56.75
  Q 345.50 56.75 345.50 57.25
  L 345.50 71.75
  Q 345.50 72.65 344.95 71.93
  Q 335.87 60.23 321.99 56.98
  C 301.71 52.22 274.23 53.26 255.79 64.29
  C 227.76 81.06 223.74 118.99 230.00 147.75
  Q 237.68 182.98 272.67 192.36
  Q 291.11 197.31 311.57 194.69
  C 326.02 192.85 336.71 188.60 345.23 177.34
  A 0.16 0.16 0.0 0 1 345.51 177.43
  Z
  M 428.16 67.94
  L 428.11 57.18
  Q 428.11 56.75 427.68 56.75
  L 394.00 56.75
  Q 393.50 56.75 393.50 57.25
  L 393.50 192.37
  Q 393.50 193.00 394.13 193.00
  L 427.71 193.00
  Q 428.16 193.00 428.13 192.56
  C 427.78 185.47 428.25 176.41 428.25 171.35
  Q 428.25 146.05 428.25 120.76
  C 428.25 100.98 435.96 89.92 456.07 87.98
  C 475.82 86.07 492.31 94.67 492.94 116.53
  Q 493.58 138.98 493.14 192.41
  Q 493.14 193.00 493.73 193.00
  L 527.23 193.00
  A 0.54 0.53 90.0 0 0 527.76 192.46
  Q 527.71 157.59 527.78 122.62
  C 527.79 114.89 528.27 107.83 531.30 101.81
  C 537.90 88.66 555.33 86.40 568.50 88.50
  C 592.36 92.29 593.15 111.35 592.77 130.86
  C 592.35 152.48 592.23 173.52 592.56 192.34
  Q 592.57 193.00 593.23 193.00
  L 626.72 193.00
  Q 627.26 193.00 627.26 192.46
  Q 627.26 157.99 627.22 123.52
  Q 627.20 110.66 626.32 104.64
  C 620.27 63.31 586.75 48.85 548.69 56.19
  Q 527.92 60.20 517.54 78.11
  Q 517.26 78.59 516.95 78.13
  C 502.09 56.07 475.50 51.10 450.74 56.01
  Q 436.88 58.75 428.53 68.09
  Q 428.16 68.51 428.16 67.94
  Z
  M 754.66 71.85
  C 743.45 58.43 729.93 55.29 712.53 54.46
  C 680.31 52.92 649.16 64.43 640.41 98.66
  Q 634.44 122.00 639.16 145.46
  C 643.82 168.62 656.78 184.97 679.97 191.55
  C 696.01 196.10 713.55 196.75 730.15 193.09
  Q 745.23 189.76 754.26 177.74
  A 0.41 0.41 0.0 0 1 755.00 177.98
  L 755.00 192.37
  Q 755.00 193.00 755.63 193.00
  L 789.25 193.00
  A 0.50 0.50 0.0 0 0 789.75 192.50
  L 789.75 57.25
  Q 789.75 56.75 789.25 56.75
  L 755.50 56.75
  Q 755.00 56.75 755.00 57.25
  L 755.00 71.73
  Q 755.00 72.25 754.66 71.85
  Z
  M 1156.33 56.48
  C 1120.62 49.34 1079.99 59.64 1069.74 99.75
  Q 1063.12 125.68 1070.10 150.72
  C 1080.33 187.47 1115.18 199.12 1149.72 194.59
  C 1180.38 190.56 1200.86 171.68 1205.18 140.03
  Q 1205.26 139.50 1204.73 139.50
  L 1193.51 139.50
  A 0.62 0.61 3.7 0 0 1192.90 140.03
  C 1190.24 159.90 1179.45 175.22 1159.29 180.25
  Q 1138.11 185.53 1116.75 181.00
  C 1087.46 174.80 1079.66 151.97 1078.88 125.42
  A 0.34 0.33 89.2 0 1 1079.21 125.07
  L 1205.49 124.76
  Q 1206.09 124.76 1206.09 124.16
  C 1206.16 90.69 1190.78 63.36 1156.33 56.48
  Z
  M 1227.24 78.84
  L 1227.27 57.39
  Q 1227.27 56.75 1226.64 56.75
  L 1215.50 56.75
  A 0.50 0.50 0.0 0 0 1215.00 57.25
  L 1215.00 192.37
  Q 1215.00 193.00 1215.62 193.00
  L 1226.72 193.00
  Q 1227.32 193.00 1227.32 192.40
  C 1227.33 165.94 1227.35 139.54 1227.68 113.08
  C 1227.86 99.05 1231.68 82.08 1243.89 73.56
  C 1256.99 64.44 1278.44 64.05 1293.76 67.31
  C 1318.81 72.65 1324.40 95.49 1324.45 117.51
  Q 1324.53 154.96 1324.49 192.45
  Q 1324.49 193.00 1325.04 193.00
  L 1336.20 193.00
  Q 1336.73 193.00 1336.73 192.47
  Q 1336.85 153.62 1336.72 114.78
  C 1336.63 87.62 1327.85 61.72 1297.75 56.23
  C 1271.85 51.50 1242.20 53.56 1227.74 78.98
  A 0.27 0.27 0.0 0 1 1227.24 78.84
  Z
  M 1462.11 78.96
  Q 1458.14 87.95 1460.72 98.03
  C 1471.19 138.85 1556.12 124.50 1558.67 156.07
  C 1561.03 185.26 1514.26 184.74 1496.50 181.29
  Q 1474.96 177.10 1467.77 156.66
  Q 1467.62 156.25 1467.18 156.25
  L 1454.27 156.25
  Q 1453.80 156.25 1453.94 156.70
  Q 1463.45 186.03 1492.93 192.82
  C 1516.03 198.13 1559.23 196.51 1569.23 168.81
  C 1572.12 160.83 1571.78 151.14 1567.51 143.74
  C 1560.04 130.80 1541.73 124.98 1528.16 121.39
  Q 1515.32 118.00 1502.50 114.50
  C 1489.94 111.08 1470.81 104.74 1472.27 89.04
  C 1474.01 70.29 1497.89 66.53 1512.35 67.04
  C 1530.21 67.67 1544.32 72.98 1551.62 90.54
  Q 1552.25 92.05 1553.01 93.47
  A 1.00 0.98 -13.1 0 0 1553.87 93.99
  L 1566.00 94.17
  Q 1566.56 94.18 1566.41 93.65
  Q 1559.95 70.67 1540.01 60.91
  C 1517.34 49.81 1474.08 51.90 1462.11 78.96
  Z
  M 180.88 56.69
  A 0.11 0.11 0.0 0 1 180.83 56.68
  L 180.64 56.58
  A 0.11 0.11 0.0 0 0 180.48 56.67
  L 180.57 192.89
  A 0.11 0.11 0.0 0 0 180.68 193.00
  L 215.14 193.00
  A 0.11 0.11 0.0 0 0 215.25 192.89
  L 215.25 56.79
  A 0.11 0.11 0.0 0 0 215.14 56.68
  L 180.88 56.69
  Z
  M 1006.00 192.99
  L 1018.67 192.99
  Q 1019.10 192.99 1019.27 192.58
  L 1074.87 57.26
  Q 1075.08 56.75 1074.53 56.75
  L 1062.53 56.75
  Q 1061.96 56.75 1061.74 57.28
  Q 1034.15 124.44 1006.55 191.55
  Q 1006.46 191.76 1006.02 192.05
  Q 1005.89 192.02 1005.73 191.99
  A 0.43 0.42 83.1 0 1 1005.42 191.74
  L 950.12 57.16
  A 0.85 0.65 -8.4 0 0 949.38 56.75
  L 937.31 56.75
  Q 936.84 56.75 937.02 57.18
  L 992.64 192.57
  A 0.69 0.68 78.2 0 0 993.27 192.99
  L 1006.00 192.99
  Z"
/>
<path fill="#000000" d="
  M 44.47 134.18
  C 52.04 166.68 93.47 167.80 117.93 157.73
  C 124.41 155.06 129.80 149.51 129.69 142.28
  C 129.50 129.91 112.07 125.72 101.96 123.67
  Q 87.84 120.81 73.66 118.19
  C 48.13 113.48 15.33 104.30 13.59 72.17
  C 11.02 24.82 65.34 12.71 101.26 18.69
  C 133.68 24.09 157.37 45.52 161.66 78.70
  A 0.27 0.26 87.0 0 1 161.40 79.00
  L 124.25 79.00
  Q 123.72 79.00 123.55 78.50
  Q 122.83 76.38 122.17 74.22
  C 118.38 61.85 109.61 53.98 96.80 51.17
  C 84.19 48.41 56.78 47.70 51.29 63.39
  C 46.50 77.10 68.07 82.41 76.85 84.29
  Q 104.74 90.26 114.74 92.76
  C 138.13 98.59 164.65 110.30 166.59 138.18
  C 168.90 171.52 141.74 189.32 112.36 193.84
  C 68.74 200.55 11.57 188.21 6.76 134.23
  Q 6.71 133.69 7.25 133.69
  L 43.93 133.74
  Q 44.37 133.74 44.47 134.18
  Z"
/>
<rect fill="#15c2be" x="-17.38" y="-11.10" transform="translate(197.88,30.66) rotate(-0.1)" width="34.76" height="22.20" rx="0.27"/>
<path fill="#15c2be" d="
  M 816.56 100.53
  L 927.36 100.82
  A 0.32 0.32 0.0 0 1 927.68 101.15
  L 927.49 111.44
  A 0.32 0.32 0.0 0 1 927.17 111.75
  L 816.49 111.75
  A 0.32 0.32 0.0 0 0 816.17 112.07
  L 816.19 181.59
  A 0.32 0.32 0.0 0 0 816.51 181.91
  L 927.14 181.75
  A 0.32 0.32 0.0 0 1 927.46 182.07
  L 927.57 192.68
  A 0.32 0.32 0.0 0 1 927.25 193.00
  L 804.07 193.00
  A 0.32 0.32 0.0 0 1 803.75 192.68
  L 803.75 19.97
  A 0.32 0.32 0.0 0 1 804.07 19.65
  L 927.24 19.62
  A 0.32 0.32 0.0 0 1 927.56 19.94
  L 927.47 30.43
  A 0.32 0.32 0.0 0 1 927.15 30.75
  L 816.57 30.75
  A 0.32 0.32 0.0 0 0 816.25 31.07
  L 816.24 100.21
  A 0.32 0.32 0.0 0 0 816.56 100.53
  Z"
/>
<path fill="#15c2be" d="
  M 1364.73 67.77
  L 1342.84 67.75
  Q 1342.25 67.75 1342.25 67.15
  L 1342.25 57.38
  Q 1342.25 56.75 1342.88 56.75
  L 1364.62 56.75
  Q 1365.24 56.75 1365.24 56.13
  L 1365.24 20.35
  Q 1365.24 19.75 1365.84 19.75
  L 1377.00 19.75
  Q 1377.50 19.75 1377.50 20.25
  L 1377.50 56.00
  Q 1377.50 56.75 1378.25 56.75
  L 1446.79 56.75
  A 0.52 0.52 0.0 0 1 1447.31 57.28
  L 1447.22 67.27
  Q 1447.22 67.75 1446.73 67.75
  L 1378.18 67.84
  A 0.70 0.70 0.0 0 0 1377.49 68.54
  Q 1377.50 113.47 1377.57 158.75
  C 1377.59 171.37 1381.75 181.70 1396.26 181.78
  Q 1432.48 181.99 1446.79 182.00
  Q 1447.33 182.00 1447.35 182.54
  L 1447.56 192.38
  Q 1447.57 192.89 1447.07 192.89
  Q 1409.40 193.29 1393.01 192.83
  C 1372.29 192.24 1365.25 177.57 1365.26 159.43
  Q 1365.29 113.85 1365.23 68.28
  Q 1365.23 67.77 1364.73 67.77
  Z"
/>
<path fill="#000000" d="
  M 345.51 177.43
  A 0.16 0.16 0.0 0 0 345.23 177.34
  C 336.71 188.60 326.02 192.85 311.57 194.69
  Q 291.11 197.31 272.67 192.36
  Q 237.68 182.98 230.00 147.75
  C 223.74 118.99 227.76 81.06 255.79 64.29
  C 274.23 53.26 301.71 52.22 321.99 56.98
  Q 335.87 60.23 344.95 71.93
  Q 345.50 72.65 345.50 71.75
  L 345.50 57.25
  Q 345.50 56.75 346.00 56.75
  L 379.46 56.75
  Q 379.89 56.75 379.89 57.18
  Q 380.56 128.85 379.89 200.50
  Q 379.79 211.42 374.85 221.14
  C 359.34 251.69 320.44 261.97 289.25 257.22
  C 260.74 252.88 239.64 234.41 234.02 205.43
  A 0.54 0.54 0.0 0 1 234.56 204.78
  L 270.76 205.02
  Q 271.42 205.03 271.73 205.61
  C 281.51 224.20 299.49 227.38 318.50 223.36
  Q 336.66 219.51 343.00 203.60
  C 346.01 196.05 345.67 185.87 345.51 177.43
  Z
  M 269.92 100.92
  C 262.36 110.14 260.84 124.34 263.58 135.56
  C 269.55 160.01 295.37 164.83 317.02 160.56
  C 333.29 157.35 343.37 146.42 345.01 130.30
  C 347.33 107.42 335.85 91.52 312.76 88.50
  C 297.84 86.56 279.99 88.64 269.92 100.92
  Z"
/>
<path fill="#000000" d="
  M 428.53 68.09
  Q 436.88 58.75 450.74 56.01
  C 475.50 51.10 502.09 56.07 516.95 78.13
  Q 517.26 78.59 517.54 78.11
  Q 527.92 60.20 548.69 56.19
  C 586.75 48.85 620.27 63.31 626.32 104.64
  Q 627.20 110.66 627.22 123.52
  Q 627.26 157.99 627.26 192.46
  Q 627.26 193.00 626.72 193.00
  L 593.23 193.00
  Q 592.57 193.00 592.56 192.34
  C 592.23 173.52 592.35 152.48 592.77 130.86
  C 593.15 111.35 592.36 92.29 568.50 88.50
  C 555.33 86.40 537.90 88.66 531.30 101.81
  C 528.27 107.83 527.79 114.89 527.78 122.62
  Q 527.71 157.59 527.76 192.46
  A 0.54 0.53 -90.0 0 1 527.23 193.00
  L 493.73 193.00
  Q 493.14 193.00 493.14 192.41
  Q 493.58 138.98 492.94 116.53
  C 492.31 94.67 475.82 86.07 456.07 87.98
  C 435.96 89.92 428.25 100.98 428.25 120.76
  Q 428.25 146.05 428.25 171.35
  C 428.25 176.41 427.78 185.47 428.13 192.56
  Q 428.16 193.00 427.71 193.00
  L 394.13 193.00
  Q 393.50 193.00 393.50 192.37
  L 393.50 57.25
  Q 393.50 56.75 394.00 56.75
  L 427.68 56.75
  Q 428.11 56.75 428.11 57.18
  L 428.16 67.94
  Q 428.16 68.51 428.53 68.09
  Z"
/>
<path fill="#000000" d="
  M 755.00 71.73
  L 755.00 57.25
  Q 755.00 56.75 755.50 56.75
  L 789.25 56.75
  Q 789.75 56.75 789.75 57.25
  L 789.75 192.50
  A 0.50 0.50 0.0 0 1 789.25 193.00
  L 755.63 193.00
  Q 755.00 193.00 755.00 192.37
  L 755.00 177.98
  A 0.41 0.41 0.0 0 0 754.26 177.74
  Q 745.23 189.76 730.15 193.09
  C 713.55 196.75 696.01 196.10 679.97 191.55
  C 656.78 184.97 643.82 168.62 639.16 145.46
  Q 634.44 122.00 640.41 98.66
  C 649.16 64.43 680.31 52.92 712.53 54.46
  C 729.93 55.29 743.45 58.43 754.66 71.85
  Q 755.00 72.25 755.00 71.73
  Z
  M 739.10 94.14
  C 721.65 83.43 685.62 85.17 675.84 106.60
  C 668.36 122.99 671.05 145.10 686.73 155.24
  C 698.33 162.74 717.02 163.68 730.26 159.76
  Q 754.53 152.57 754.75 126.00
  Q 754.94 103.86 739.10 94.14
  Z"
/>
<path fill="#15c2be" d="
  M 1069.74 99.75
  C 1079.99 59.64 1120.62 49.34 1156.33 56.48
  C 1190.78 63.36 1206.16 90.69 1206.09 124.16
  Q 1206.09 124.76 1205.49 124.76
  L 1079.21 125.07
  A 0.34 0.33 89.2 0 0 1078.88 125.42
  C 1079.66 151.97 1087.46 174.80 1116.75 181.00
  Q 1138.11 185.53 1159.29 180.25
  C 1179.45 175.22 1190.24 159.90 1192.90 140.03
  A 0.62 0.61 3.7 0 1 1193.51 139.50
  L 1204.73 139.50
  Q 1205.26 139.50 1205.18 140.03
  C 1200.86 171.68 1180.38 190.56 1149.72 194.59
  C 1115.18 199.12 1080.33 187.47 1070.10 150.72
  Q 1063.12 125.68 1069.74 99.75
  Z
  M 1079.80 113.75
  L 1192.88 113.75
  A 0.13 0.13 0.0 0 0 1193.01 113.62
  L 1193.01 113.12
  A 49.28 46.27 0.0 0 0 1143.73 66.85
  L 1128.95 66.85
  A 49.28 46.27 -0.0 0 0 1079.67 113.12
  L 1079.67 113.62
  A 0.13 0.13 0.0 0 0 1079.80 113.75
  Z"
/>
<path fill="#15c2be" d="
  M 1227.24 78.84
  A 0.27 0.27 0.0 0 0 1227.74 78.98
  C 1242.20 53.56 1271.85 51.50 1297.75 56.23
  C 1327.85 61.72 1336.63 87.62 1336.72 114.78
  Q 1336.85 153.62 1336.73 192.47
  Q 1336.73 193.00 1336.20 193.00
  L 1325.04 193.00
  Q 1324.49 193.00 1324.49 192.45
  Q 1324.53 154.96 1324.45 117.51
  C 1324.40 95.49 1318.81 72.65 1293.76 67.31
  C 1278.44 64.05 1256.99 64.44 1243.89 73.56
  C 1231.68 82.08 1227.86 99.05 1227.68 113.08
  C 1227.35 139.54 1227.33 165.94 1227.32 192.40
  Q 1227.32 193.00 1226.72 193.00
  L 1215.62 193.00
  Q 1215.00 193.00 1215.00 192.37
  L 1215.00 57.25
  A 0.50 0.50 0.0 0 1 1215.50 56.75
  L 1226.64 56.75
  Q 1227.27 56.75 1227.27 57.39
  L 1227.24 78.84
  Z"
/>
<path fill="#15c2be" d="
  M 1462.11 78.96
  C 1474.08 51.90 1517.34 49.81 1540.01 60.91
  Q 1559.95 70.67 1566.41 93.65
  Q 1566.56 94.18 1566.00 94.17
  L 1553.87 93.99
  A 1.00 0.98 -13.1 0 1 1553.01 93.47
  Q 1552.25 92.05 1551.62 90.54
  C 1544.32 72.98 1530.21 67.67 1512.35 67.04
  C 1497.89 66.53 1474.01 70.29 1472.27 89.04
  C 1470.81 104.74 1489.94 111.08 1502.50 114.50
  Q 1515.32 118.00 1528.16 121.39
  C 1541.73 124.98 1560.04 130.80 1567.51 143.74
  C 1571.78 151.14 1572.12 160.83 1569.23 168.81
  C 1559.23 196.51 1516.03 198.13 1492.93 192.82
  Q 1463.45 186.03 1453.94 156.70
  Q 1453.80 156.25 1454.27 156.25
  L 1467.18 156.25
  Q 1467.62 156.25 1467.77 156.66
  Q 1474.96 177.10 1496.50 181.29
  C 1514.26 184.74 1561.03 185.26 1558.67 156.07
  C 1556.12 124.50 1471.19 138.85 1460.72 98.03
  Q 1458.14 87.95 1462.11 78.96
  Z"
/>
<path fill="#000000" d="
  M 180.88 56.69
  L 215.14 56.68
  A 0.11 0.11 0.0 0 1 215.25 56.79
  L 215.25 192.89
  A 0.11 0.11 0.0 0 1 215.14 193.00
  L 180.68 193.00
  A 0.11 0.11 0.0 0 1 180.57 192.89
  L 180.48 56.67
  A 0.11 0.11 0.0 0 1 180.64 56.58
  L 180.83 56.68
  A 0.11 0.11 0.0 0 0 180.88 56.69
  Z"
/>
<path fill="#15c2be" d="
  M 1006.02 192.05
  Q 1005.71 192.69 1006.00 192.99
  L 993.27 192.99
  A 0.69 0.68 78.2 0 1 992.64 192.57
  L 937.02 57.18
  Q 936.84 56.75 937.31 56.75
  L 949.38 56.75
  A 0.85 0.65 -8.4 0 1 950.12 57.16
  L 1005.42 191.74
  A 0.43 0.42 83.1 0 0 1005.73 191.99
  Q 1005.89 192.02 1006.02 192.05
  Z"
/>
<path fill="#000000" d="
  M 1006.00 192.99
  Q 1005.71 192.69 1006.02 192.05
  Q 1006.46 191.76 1006.55 191.55
  Q 1034.15 124.44 1061.74 57.28
  Q 1061.96 56.75 1062.53 56.75
  L 1074.53 56.75
  Q 1075.08 56.75 1074.87 57.26
  L 1019.27 192.58
  Q 1019.10 192.99 1018.67 192.99
  L 1006.00 192.99
  Z"
/>
<path fill="#ffffff" d="
  M 1079.80 113.75
  A 0.13 0.13 0.0 0 1 1079.67 113.62
  L 1079.67 113.12
  A 49.28 46.27 -0.0 0 1 1128.95 66.85
  L 1143.73 66.85
  A 49.28 46.27 0.0 0 1 1193.01 113.12
  L 1193.01 113.62
  A 0.13 0.13 0.0 0 1 1192.88 113.75
  L 1079.80 113.75
  Z"
/>
<path fill="#ffffff" d="
  M 269.92 100.92
  C 279.99 88.64 297.84 86.56 312.76 88.50
  C 335.85 91.52 347.33 107.42 345.01 130.30
  C 343.37 146.42 333.29 157.35 317.02 160.56
  C 295.37 164.83 269.55 160.01 263.58 135.56
  C 260.84 124.34 262.36 110.14 269.92 100.92
  Z"
/>
<path fill="#ffffff" d="
  M 675.84 106.60
  C 685.62 85.17 721.65 83.43 739.10 94.14
  Q 754.94 103.86 754.75 126.00
  Q 754.53 152.57 730.26 159.76
  C 717.02 163.68 698.33 162.74 686.73 155.24
  C 671.05 145.10 668.36 122.99 675.84 106.60
  Z"
/>
</svg>
